<?xml version="1.0" standalone="no"?>
<!DOCTYPE svg PUBLIC "-//W3C//DTD SVG 20010904//EN"
 "http://www.w3.org/TR/2001/REC-SVG-20010904/DTD/svg10.dtd">
<svg version="1.0" xmlns="http://www.w3.org/2000/svg"
 width="700.000000pt" height="700.000000pt" viewBox="0 0 700.000000 700.000000"
 preserveAspectRatio="xMidYMid meet">
<metadata>
Created by potrace 1.11, written by Peter Selinger 2001-2013
</metadata>
<g transform="translate(0.000000,700.000000) scale(0.100000,-0.100000)"
fill="#000000" stroke="none">
<path d="M3395 6988 c-34 -13 -93 -51 -580 -373 -198 -131 -423 -280 -500
-330 -77 -50 -266 -175 -420 -277 -154 -101 -359 -236 -455 -300 -96 -63 -310
-204 -475 -313 -165 -109 -357 -236 -427 -282 -150 -99 -182 -138 -179 -226 1
-29 3 -140 4 -247 l2 -195 55 0 55 0 0 -1685 0 -1685 -55 -8 c-64 -9 -113 -43
-148 -103 -22 -39 -22 -40 -20 -441 l3 -401 31 -39 c17 -21 46 -47 65 -58 34
-20 54 -20 3137 -22 2781 -3 3106 -1 3140 12 49 21 81 52 103 100 17 37 19 72
19 423 0 357 -1 385 -19 420 -35 67 -104 112 -173 112 l-33 0 -1 1683 c0 925
4 1685 8 1688 5 3 32 5 61 4 l53 -2 -2 241 c-2 320 5 305 -184 428 -95 63
-1165 747 -1645 1054 -71 46 -134 87 -140 92 -5 4 -17 11 -25 15 -8 4 -41 24
-73 45 -150 97 -353 228 -369 237 -16 9 -155 99 -455 292 -71 45 -151 96 -178
112 -57 34 -135 46 -180 29z m119 -451 c28 -18 161 -104 296 -190 304 -194
1243 -795 1365 -873 180 -116 253 -163 420 -269 94 -59 173 -111 178 -115 4
-3 -1021 -6 -2277 -6 -1257 0 -2283 3 -2281 6 2 4 111 77 242 163 131 86 391
257 578 381 187 123 455 300 595 392 140 93 383 253 539 356 156 104 286 188
289 188 3 0 28 -15 56 -33z m-1186 -3780 l2 -1687 -479 0 -479 0 0 1683 c0
925 1 1684 3 1687 2 3 216 5 477 5 l473 0 3 -1688z m1649 -10 l2 -1687 -478 0
-479 0 0 1684 1 1685 21 3 c11 2 226 3 476 2 l455 0 2 -1687z m1671 1684 c9
-1 12 -345 12 -1686 l0 -1685 -478 0 -479 0 -1 1668 c0 917 1 1676 3 1687 4
20 11 20 467 18 255 0 469 -1 476 -2z m709 -3754 c4 -5 7 -165 4 -264 l-1 -23
-2860 0 -2860 0 -1 28 c-3 145 0 255 9 261 12 7 5701 5 5709 -2z"/>
</g>
</svg>
